<svg width="89" height="38" viewBox="0 0 89 38" fill="none" xmlns="http://www.w3.org/2000/svg">
<mask id="mask0_358_3956" style="mask-type:luminance" maskUnits="userSpaceOnUse" x="0" y="0" width="89" height="38">
<path d="M88.4189 0H0.418945V38H88.4189V0Z" fill="white"/>
</mask>
<g mask="url(#mask0_358_3956)">
<path d="M19.7295 38C30.3855 38 39.04 29.503 39.04 19.0042C39.04 8.50485 30.3855 0 19.7295 0C9.05697 0 0.418945 8.50485 0.418945 19.0042C0.418945 29.503 9.05697 38 19.7295 38Z" fill="#A50034"/>
<path d="M18.9525 10.6641V27.3358H24.335V25.8367H20.5039V10.6641H18.9525Z" fill="white"/>
<path d="M13.5631 15.213C14.8436 15.213 15.8759 14.1877 15.8759 12.9356C15.8759 11.6825 14.8436 10.6533 13.5631 10.6533C12.2825 10.6533 11.2503 11.6825 11.2503 12.9356C11.2503 14.1887 12.2825 15.213 13.5631 15.213Z" fill="white"/>
<path d="M20.5034 3.10148C20.3015 3.09165 19.9178 3.07935 19.7345 3.07935C10.8211 3.07935 3.56708 10.2249 3.56708 18.9964C3.56708 23.2569 5.24832 27.2503 8.29354 30.2534C11.3512 33.2495 15.4087 34.905 19.7345 34.905C24.0437 34.905 28.1002 33.2495 31.1524 30.2534C34.2051 27.2503 35.8943 23.2569 35.8943 18.9964V18.2884H35.2403H24.35V19.7535H34.3545C34.3545 19.7855 34.3545 19.941 34.3475 19.9813C33.8389 27.4801 27.4786 33.4192 19.7345 33.4192C15.8144 33.4192 12.1387 31.9182 9.37223 29.1922C6.59681 26.4774 5.06745 22.8609 5.06745 18.9959C5.06745 15.153 6.59681 11.5178 9.37223 8.79468C12.1387 6.07404 15.8144 4.573 19.7345 4.573C19.9033 4.573 20.314 4.573 20.5034 4.58283V3.10148Z" fill="white"/>
<path d="M53.5626 6.39678H47.7599V31.1325H65.5826V26.3175H53.5626V6.39678ZM78.3475 21.7062H83.0734V26.0312C82.2021 26.3579 80.5029 26.6835 78.8861 26.6835C73.6635 26.6835 71.9238 24.0716 71.9238 18.7666C71.9238 13.7076 73.5806 10.7247 78.8032 10.7247C81.7055 10.7247 83.3632 11.6231 84.7292 13.3376L88.337 10.0714C86.1396 6.9719 82.284 6.0332 78.6792 6.0332C70.5533 6.0332 66.285 10.4 66.285 18.7253C66.285 27.0102 70.1396 31.4995 78.6383 31.4995C82.5339 31.4995 86.3475 30.5205 88.4189 29.0923V17.0929H78.3475V21.7062Z" fill="#6B6B6B"/>
</g>
</svg>
