<svg width="113" height="38" viewBox="0 0 113 38" fill="none" xmlns="http://www.w3.org/2000/svg">
<g clip-path="url(#clip0_358_3945)">
<path d="M26.7276 20.0809C26.7109 16.9674 28.0902 14.6174 30.8817 12.8867C29.3198 10.6046 26.9601 9.34899 23.8445 9.10298C20.895 8.86548 17.6714 10.8591 16.4917 10.8591C15.2454 10.8591 12.3873 9.18787 10.144 9.18787C5.50795 9.26417 0.581085 12.9631 0.581085 20.4881C0.581085 22.7109 0.979887 25.0071 1.77749 27.3769C2.84096 30.4904 6.67943 38.1257 10.6841 37.9984C12.7778 37.9476 14.2567 36.4798 16.9818 36.4798C19.6238 36.4798 20.9947 37.9984 23.3294 37.9984C27.3673 37.939 30.8402 30.9994 31.8538 27.8774C26.4367 25.2729 26.7276 20.2421 26.7276 20.0809ZM22.025 6.15067C24.2932 3.40196 24.0855 0.89927 24.019 0C22.0167 0.118771 19.6987 1.39132 18.3777 2.96081C16.9237 4.64058 16.0679 6.71908 16.2507 9.06057C18.4192 9.23028 20.3966 8.09347 22.025 6.15067Z" fill="black"/>
<path d="M44.5863 24.9624L42.4094 31.706H39.6114L46.7358 10.2747H50.001L57.1527 31.706H54.2593L52.019 24.9624H44.5863ZM51.4613 22.7979L49.4114 16.629C48.9443 15.2293 48.636 13.9593 48.323 12.7172H48.2641C47.9512 13.9871 47.6111 15.2895 47.2074 16.5965L45.1576 22.7932L51.4613 22.7979ZM59.275 21.3379C59.275 19.3681 59.2161 17.7737 59.148 16.3138H61.6059L61.7329 18.9556H61.7919C62.9121 17.0786 64.6852 15.9662 67.1431 15.9662C70.7848 15.9662 73.5194 19.1132 73.5194 23.7898C73.5194 29.3237 70.2224 32.0535 66.6761 32.0535C64.6852 32.0535 62.9438 31.1637 62.0413 29.6389H61.9824V38H59.275V21.3379ZM61.9778 25.4397C61.9778 25.8569 62.0368 26.2322 62.1048 26.5845C62.6036 28.5219 64.2499 29.8613 66.2135 29.8613C69.1068 29.8613 70.7893 27.4466 70.7893 23.9148C70.7893 20.8281 69.2021 18.1955 66.3087 18.1955C64.4448 18.1955 62.7035 19.5628 62.1683 21.6624C62.073 22.01 61.9824 22.4271 61.9824 22.8071L61.9778 25.4397ZM76.3491 21.3379C76.3491 19.3681 76.2901 17.7737 76.2222 16.3138H78.6802L78.8071 18.9556H78.8661C79.9861 17.0786 81.7594 15.9662 84.2175 15.9662C87.859 15.9662 90.5933 19.1132 90.5933 23.7898C90.5933 29.3237 87.2967 32.0535 83.75 32.0535C81.7594 32.0535 80.0182 31.1637 79.1155 29.6389H79.0565V38H76.3491V21.3379ZM79.0565 25.4397C79.0565 25.8569 79.1155 26.2322 79.1834 26.5845C79.6822 28.5219 81.3286 29.8613 83.2923 29.8613C86.1857 29.8613 87.8679 27.4466 87.8679 23.9148C87.8679 20.8281 86.2805 18.1955 83.3872 18.1955C81.5235 18.1955 79.7823 19.5628 79.2469 21.6624C79.1521 22.01 79.061 22.4271 79.061 22.8071L79.0565 25.4397ZM93.4276 9.12988H96.1671V31.7013H93.4276V9.12988ZM101.672 24.5174C101.731 28.2994 104.099 29.8613 106.833 29.8613C108.793 29.8613 109.976 29.5137 111.001 29.0688L111.468 31.071C110.507 31.5159 108.856 32.0258 106.461 32.0258C101.827 32.0258 99.056 28.9112 99.056 24.2671C99.056 19.6231 101.731 15.9662 106.116 15.9662C111.033 15.9662 112.338 20.3831 112.338 23.215C112.338 23.7898 112.279 24.23 112.244 24.5174H101.672ZM109.699 22.5152C109.731 20.7354 108.983 17.9685 105.904 17.9685C103.133 17.9685 101.922 20.5778 101.704 22.5152H109.699Z" fill="black"/>
</g>
<defs>
<clipPath id="clip0_358_3945">
<rect width="112" height="38" fill="white" transform="translate(0.581085)"/>
</clipPath>
</defs>
</svg>
