<svg width="178" height="28" viewBox="0 0 178 28" fill="none" xmlns="http://www.w3.org/2000/svg">
<path d="M168.999 12.3587V16.0342H171.607V19.6809C171.615 20.0067 171.596 20.3582 171.54 20.6394C171.437 21.3195 170.784 22.4778 168.932 22.4778C167.093 22.4778 166.452 21.3195 166.341 20.6394C166.294 20.3582 166.274 20.0067 166.274 19.6809V8.16289C166.274 7.75548 166.302 7.30955 166.389 6.97204C166.515 6.35816 167.065 5.14757 168.919 5.14757C170.866 5.14757 171.351 6.42385 171.462 6.97204C171.536 7.33512 171.54 7.94414 171.54 7.94414V9.34271H177.949V8.51597C177.949 8.51597 177.978 7.65322 177.9 6.8481C177.418 2.1206 173.485 0.624909 168.975 0.624909C164.457 0.624909 160.604 2.13451 160.043 6.8481C159.993 7.27914 159.915 8.05448 159.915 8.51597V19.1113C159.915 19.5728 159.93 19.93 160.016 20.7733C160.434 25.3707 164.457 27.0004 168.957 27.0004C173.485 27.0004 177.481 25.3707 177.907 20.7733C177.982 19.93 177.99 19.5728 178 19.1113V12.3587H168.999ZM124.811 1.30285H118.375V19.9465C118.385 20.2714 118.375 20.6364 118.318 20.904C118.184 21.5299 117.648 22.7343 115.873 22.7343C114.121 22.7343 113.571 21.5299 113.447 20.904C113.382 20.6364 113.374 20.2714 113.382 19.9465V1.30285H106.948V19.3679C106.94 19.8336 106.977 20.7849 107.005 21.0342C107.449 25.7416 111.195 27.27 115.873 27.27C120.56 27.27 124.304 25.7416 124.756 21.0342C124.792 20.7849 124.839 19.8336 124.811 19.3679V1.30285ZM65.6788 1.30285L62.4685 21.0024L59.2601 1.30285H48.879L48.3284 26.5043H54.6883L54.8605 3.17457L59.2363 26.5043H65.6889L70.0687 3.17457L70.2415 26.5043H76.6174L76.0481 1.30285H65.6788ZM27.243 1.30285L22.5294 26.5043H29.4031L32.9552 3.17457L36.422 26.5043H43.2482L38.5541 1.30285H27.243ZM147.302 21.593L141.309 1.30285H131.866V26.2416H138.113L137.75 5.30225L144.186 26.2416H153.242V1.30285H146.955L147.302 21.593ZM89.5203 7.86162C89.4074 7.36391 89.4401 6.83515 89.4985 6.5588C89.6808 5.75206 90.2276 4.87218 91.8049 4.87218C93.2748 4.87218 94.1363 5.77956 94.1363 7.14128V8.68229H100.41V6.92576C100.41 1.49572 95.4939 0.64271 91.935 0.64271C87.453 0.64271 83.7921 2.10604 83.1237 6.19183C82.9469 7.30373 82.9033 8.29071 83.1845 9.55015C84.2742 14.6447 93.2296 16.1225 94.5296 19.3443C94.7586 19.9546 94.6932 20.7329 94.5764 21.1914C94.3816 22.0299 93.8122 22.8732 92.1235 22.8732C90.5399 22.8732 89.5873 21.9716 89.5873 20.6128L89.585 18.1942H82.8324V20.1167C82.8324 25.6875 87.238 27.3683 91.9841 27.3683C96.5284 27.3683 100.282 25.8302 100.884 21.661C101.172 19.5068 100.955 18.1036 100.84 17.5752C99.7874 12.35 90.2432 10.7783 89.5203 7.86162ZM6.76369 7.79981C6.64051 7.29176 6.66926 6.75554 6.73788 6.47595C6.91171 5.6731 7.46228 4.77769 9.06692 4.77769C10.5553 4.77769 11.4316 5.69381 11.4316 7.06653V8.62628H17.7787V6.85587C17.7787 1.37373 12.788 0.5 9.19015 0.5C4.67021 0.5 0.976976 1.98598 0.301261 6.10122C0.116322 7.23092 0.0846169 8.22468 0.351897 9.49808C1.4537 14.6505 10.4974 16.1403 11.8133 19.4006C12.0597 20.0067 11.9851 20.7849 11.8629 21.2613C11.6541 22.1085 11.0801 22.9638 9.37772 22.9638C7.78805 22.9638 6.83722 22.0467 6.83722 20.6691L6.82839 18.2441H0V20.1711C0 25.8056 4.46828 27.5 9.2506 27.5C13.8482 27.5 17.6238 25.9483 18.2398 21.7309C18.5459 19.5569 18.3162 18.1421 18.213 17.6056C17.1389 12.3163 7.4881 10.7498 6.76369 7.79981Z" fill="#1428A0"/>
</svg>
