<svg width="178" height="38" viewBox="0 0 178 38" fill="none" xmlns="http://www.w3.org/2000/svg">
<g clip-path="url(#clip0_358_3948)">
<path d="M62.8899 21.8868L61.8308 24.8914H61.7426C61.5661 24.2139 61.2424 23.1829 60.7129 21.9457L55.0349 7.65888H49.4745V30.4294H53.152V16.3783C53.152 15.4945 53.152 14.493 53.1226 13.2558C53.0932 12.6372 53.0343 12.1659 53.0049 11.8124H53.0932C53.2697 12.6961 53.4756 13.3442 53.6227 13.7566L60.4481 30.3705H63.037L69.8036 13.6093C69.9507 13.2263 70.0978 12.4604 70.2449 11.8124H70.3332C70.2449 13.4914 70.1861 14.9938 70.1566 15.9069V30.3411H74.0695V7.59997H68.7151L62.8899 21.8868ZM77.7764 14.0217H81.6009V30.3411H77.7764V14.0217ZM79.7181 7.12865C79.0708 7.12865 78.5413 7.36431 78.1 7.77671C77.6587 8.18912 77.4233 8.71935 77.4233 9.36741C77.4233 9.98601 77.6587 10.5162 78.1 10.9287C78.5413 11.3411 79.0708 11.5473 79.7181 11.5473C80.3653 11.5473 80.9243 11.3116 81.3362 10.9287C81.7775 10.5162 82.0128 9.98601 82.0128 9.36741C82.0128 8.74881 81.7775 8.21857 81.3362 7.77671C80.9537 7.36431 80.3947 7.12865 79.7181 7.12865ZM95.1635 13.8744C94.4574 13.7271 93.7219 13.6387 93.0158 13.6387C91.28 13.6387 89.6914 14.0217 88.3675 14.7876C87.0436 15.5535 85.9845 16.6139 85.3078 17.9395C84.6017 19.2945 84.2487 20.8558 84.2487 22.6527C84.2487 24.2139 84.6017 25.5984 85.2784 26.8651C85.9551 28.1023 86.8965 29.1038 88.1615 29.7814C89.3678 30.4589 90.7799 30.8124 92.3686 30.8124C94.1926 30.8124 95.7519 30.4294 96.9875 29.7225L97.0169 29.693V26.1581L96.8698 26.2759C96.3108 26.6883 95.6636 27.0418 95.0164 27.248C94.3397 27.4837 93.7219 27.6015 93.1923 27.6015C91.6625 27.6015 90.4563 27.1597 89.6031 26.1876C88.7205 25.2449 88.2792 23.9488 88.2792 22.3287C88.2792 20.6496 88.7205 19.324 89.6325 18.3519C90.5446 17.3798 91.7508 16.879 93.2217 16.879C94.4574 16.879 95.7224 17.2914 96.8698 18.1162L97.0169 18.2341V14.493L96.9875 14.4635C96.4873 14.2573 95.9284 14.0217 95.1635 13.8744ZM107.785 13.7566C106.843 13.7566 105.961 14.0511 105.196 14.6697C104.548 15.2 104.107 15.9659 103.725 16.879H103.695V14.0217H99.8706V30.3411H103.695V22.0046C103.695 20.5907 103.989 19.4124 104.637 18.5581C105.284 17.6744 106.108 17.2325 107.108 17.2325C107.461 17.2325 107.814 17.3209 108.255 17.3798C108.667 17.4976 108.961 17.6155 109.167 17.7628L109.314 17.8806V14.0511L109.226 14.0217C108.961 13.8449 108.432 13.7566 107.785 13.7566ZM118.199 13.6682C115.522 13.6682 113.374 14.4635 111.874 16.0248C110.344 17.586 109.609 19.7364 109.609 22.4465C109.609 24.9798 110.373 27.0418 111.844 28.5442C113.315 30.017 115.316 30.7829 117.817 30.7829C120.435 30.7829 122.524 29.9876 124.024 28.3969C125.554 26.8062 126.29 24.6852 126.29 22.0635C126.29 19.4713 125.584 17.4093 124.142 15.9069C122.759 14.4046 120.729 13.6682 118.199 13.6682ZM121.259 26.217C120.553 27.1302 119.435 27.5721 118.052 27.5721C116.669 27.5721 115.551 27.1302 114.757 26.1581C113.963 25.2449 113.58 23.9193 113.58 22.2403C113.58 20.5023 113.992 19.1767 114.757 18.2341C115.551 17.2914 116.64 16.8201 118.023 16.8201C119.376 16.8201 120.435 17.262 121.2 18.1752C121.965 19.0883 122.377 20.4139 122.377 22.1519C122.318 23.9193 121.994 25.3038 121.259 26.217ZM134.821 20.7969C133.615 20.2961 132.85 19.9131 132.497 19.5891C132.203 19.2945 132.056 18.8821 132.056 18.3519C132.056 17.91 132.232 17.4682 132.674 17.1736C133.115 16.879 133.615 16.7318 134.351 16.7318C134.998 16.7318 135.674 16.8496 136.322 17.0263C136.969 17.2031 137.557 17.4682 138.028 17.8217L138.175 17.9395V14.3457L138.087 14.3162C137.646 14.1395 137.057 13.9628 136.351 13.8155C135.645 13.6976 134.998 13.6387 134.468 13.6387C132.644 13.6387 131.144 14.0806 129.967 15.0527C128.79 15.9659 128.231 17.2031 128.231 18.6465C128.231 19.4124 128.349 20.0899 128.614 20.6496C128.879 21.2093 129.261 21.7395 129.791 22.1814C130.32 22.5938 131.085 23.0651 132.144 23.5069C133.027 23.8899 133.703 24.1845 134.115 24.4201C134.527 24.6558 134.792 24.9209 134.998 25.1271C135.145 25.3628 135.233 25.6573 135.233 26.0403C135.233 27.1302 134.409 27.6604 132.733 27.6604C132.085 27.6604 131.409 27.5426 130.614 27.2775C129.82 27.0124 129.084 26.6294 128.467 26.1876L128.32 26.0697V29.8108L128.408 29.8403C128.967 30.1054 129.643 30.2821 130.467 30.4883C131.291 30.6356 132.026 30.7535 132.674 30.7535C134.645 30.7535 136.263 30.3116 137.41 29.3395C138.587 28.3969 139.205 27.1891 139.205 25.6279C139.205 24.538 138.911 23.5659 138.263 22.8294C137.41 22.1224 136.351 21.386 134.821 20.7969ZM149.296 13.6682C146.619 13.6682 144.471 14.4635 142.971 16.0248C141.47 17.586 140.705 19.7364 140.705 22.4465C140.705 24.9798 141.47 27.0418 142.941 28.5442C144.412 30.017 146.413 30.7829 148.913 30.7829C151.532 30.7829 153.621 29.9876 155.121 28.3969C156.651 26.8062 157.386 24.6852 157.386 22.0635C157.386 19.4713 156.68 17.4093 155.239 15.9069C153.856 14.4046 151.826 13.6682 149.296 13.6682ZM152.326 26.217C151.62 27.1302 150.502 27.5721 149.119 27.5721C147.707 27.5721 146.619 27.1302 145.824 26.1581C145.03 25.2449 144.648 23.9193 144.648 22.2403C144.648 20.5023 145.059 19.1767 145.824 18.2341C146.619 17.2914 147.707 16.8201 149.09 16.8201C150.414 16.8201 151.502 17.262 152.267 18.1752C153.032 19.0883 153.444 20.4139 153.444 22.1519C153.444 23.9193 153.062 25.3038 152.326 26.217ZM177.833 17.1736V14.0217H173.979V9.19067L173.861 9.22012L170.213 10.31L170.125 10.3395V14.0217H164.359V11.9597C164.359 11.017 164.594 10.2806 165.006 9.80927C165.418 9.33795 166.036 9.10229 166.801 9.10229C167.33 9.10229 167.889 9.22012 168.507 9.48524L168.654 9.57361V6.24493L168.566 6.21547C168.036 6.03873 167.33 5.9209 166.418 5.9209C165.271 5.9209 164.271 6.18601 163.359 6.62788C162.447 7.12865 161.77 7.80617 161.27 8.71935C160.77 9.60307 160.505 10.6046 160.505 11.7535V14.0217H157.828V17.1442H160.505V30.3411H164.359V17.1736H170.125V25.569C170.125 29.0155 171.743 30.7535 174.979 30.7535C175.509 30.7535 176.068 30.6651 176.597 30.5767C177.156 30.4589 177.568 30.3116 177.804 30.1938L177.833 30.1643V27.0124L177.686 27.1302C177.451 27.2775 177.245 27.3953 176.892 27.4837C176.597 27.5721 176.333 27.6015 176.127 27.6015C175.362 27.6015 174.832 27.4248 174.45 26.9829C174.097 26.5705 173.92 25.893 173.92 24.8914V17.1736H177.833Z" fill="#737373"/>
<path d="M0.166962 0H18.2013V18.0574H0.166962V0Z" fill="#F25022"/>
<path d="M20.0842 0H38.1185V18.0574H20.0842V0Z" fill="#7FBA00"/>
<path d="M0.166962 19.9426H18.2013V38H0.166962V19.9426Z" fill="#00A4EF"/>
<path d="M20.0842 19.9426H38.1185V38H20.0842V19.9426Z" fill="#FFB900"/>
</g>
<defs>
<clipPath id="clip0_358_3948">
<rect width="177.676" height="38" fill="white" transform="translate(0.16217)"/>
</clipPath>
</defs>
</svg>
